/* XPM */
static char *result[] = {
/* columns rows colors chars-per-pixel */
"32 32 56 1 ",
"  c gray6",
". c #131313",
"X c #1B1B1B",
"o c #232323",
"O c #272827",
"+ c #2C2D2C",
"@ c #2F302F",
"# c #333433",
"$ c #373837",
"% c #373838",
"& c #3B3C3B",
"* c #3F403F",
"= c #3F4040",
"- c #424343",
"; c #464847",
": c #474948",
"> c #4B4C4C",
", c #4E504F",
"< c #4F5150",
"1 c #525453",
"2 c #565857",
"3 c #575958",
"4 c #5B5C5C",
"5 c #5F605F",
"6 c #636463",
"7 c #676867",
"8 c #676968",
"9 c #6B6C6B",
"0 c #6F706F",
"q c #6F7170",
"w c #747574",
"e c #777877",
"r c #777A78",
"t c #7A7C7B",
"y c #7E817F",
"u c #7F8281",
"i c #828483",
"p c #868886",
"a c #878A89",
"s c #898C8A",
"d c #8D918F",
"f c #8F9391",
"g c #929693",
"h c #949996",
"j c #979B98",
"k c #999D9B",
"l c #9DA19E",
"z c #9FA3A0",
"x c #A2A6A3",
"c c #A4A8A6",
"v c #A7ABA8",
"b c #A9ADAB",
"n c #AEB2AF",
"m c #AFB4B1",
"M c #B1B6B3",
"N c #B3B8B5",
/* pixels */
"MMNMMNNvpee7-#$##1gNMMMg1+X%ixsi",
"MMMmvxxg0577411>%>pcccxi1+X#yjpy",
"MMMvgpp0=#-6igge>:qpiiy9:+X+7iyy",
"gjzjiw7>+O>qkMbs>%17006<&+o+19ey",
"16tir7*++;ekbbg0&o@=77>%oo+%-10y",
"#*255>++:9fxxki6#Xo#<1#ooO:33479",
"$###@@@:yfsipie6#o#%#@ooO:tggy4:",
"11;%Oo#3gxpeew61##14:==&%<pxxi<#",
"ggse;#$3gxpee7%O+:yjgdde>>wii0:%",
"NMbs5=&1sjiew4Oo-0lmvxxd519061&@",
"Nvgt04->qitee5O@ekbvgspy09w6&Ooo",
"cjprw7;=46655>+%ejzjitteeee6&ooo",
"aitee7;%=-$@+OO%>6eiteeeeee06<&@",
"eeeq61*=>1;$oo@$%=36460076670053",
"eee6=@#>tddw-@#$%===#&57>==>7ydj",
"e06,@+:9jbxi,*>211:&oO:>%Oo&9gvM",
"e6-@+:tkbxi6-,tghs04&OOoXXX&ybnM",
"e6#+:0lncs5>17gcncp71&oXXXO1sxcc",
"e7:>tlbcd7&-egsgccp073&++=7tpsds",
"7650gccjy4O%sxpikhiee6=+#:0ytttt",
":4igssspe4+&pxieiitwe5@o+&:40eee",
"%,tpe97771O%ygiee0076,@O:,&-4654",
"%=11,::>:&o+7yeee04>%#%,yy,%-=@+",
"133,%@++@oXo190063:==>3wgs4-%@XX",
"ggge%.XXXX X=<65-%%<efggsy04-#@+",
"MMns=o@%&&%%%=>:@+:9knvjiww7<=#+",
"mmmd>-wppspw,#+O+:ekbbfiteew9<+X",
"czxp11gbljji1#oo@>tjzkiewwww6:o ",
"pppw>1gle674<=#+#&<6titweee6=O. ",
"eee913yt<==&==%=,<:,6776544,@XXX",
"eeee963:+ooXXO+<ypw5<:-=++++++++",
"eeeee7-+X.  .X+3gcp7:%%+X .X#%%%"
};
