/* XPM */
static char *_918cfe39f314e55b024dd1c6a2b664azTUcDN2Xi1Cdyv2k[] = {
/* columns rows colors chars-per-pixel */
"16 16 38 1 ",
"  c gray6",
". c #131313",
"X c #161616",
"o c #1B1B1B",
"O c gray11",
"+ c #2B2C2B",
"@ c #2F2E2F",
"# c #2F302F",
"$ c #313232",
"% c #333434",
"& c #353636",
"* c #373837",
"= c #373838",
"- c #393A39",
"; c #3F403F",
": c #3F4040",
"> c #454746",
", c #4C4C4C",
"< c #5E5F5E",
"1 c #6A6B6A",
"2 c #6F706F",
"3 c #727272",
"4 c #737473",
"5 c #767776",
"6 c #777877",
"7 c #787978",
"8 c #7B7C7B",
"9 c #7D7E7D",
"0 c #818281",
"q c #9A9E9C",
"w c #ABB0AD",
"e c #ACB1AE",
"r c #AEB2B0",
"t c #AFB4B1",
"y c #B1B6B3",
"u c #B2B7B4",
"i c #B3B8B5",
"p c #B4B9B6",
/* pixels */
"yuyi67%%$uuy& e0",
"uy77 ;iu$651=.59",
"&76.*ru8oo5@.--9",
"&oX-u675O>OX&ye&",
"uu*-y65 &puu=65&",
"i65&566 uy8775 o",
"765&*O &=455554=",
"55X&wy&&-& 3#+5p",
"7X&uy<&yu5&   iy",
"5:iy2 y7y55&&q99",
"=y885Xe5555 &&55",
"=--=- 555>O>u&& ",
"yt  . -1O&yy55&&",
"tr%ytt- &tu6555 ",
"77&t,,,&&*7555X ",
"677%. .&i5-& .=="
};
