/* XPM */
static char *ce43ce26a1a3426ca4ceddaf269529f6LKtTroBjzP1RGB6s[] = {
/* columns rows colors chars-per-pixel */
"32 32 156 2 ",
"   c #203F1C",
".  c #0C3C2B",
"X  c #2C4416",
"o  c #22431E",
"O  c #2A4D1E",
"+  c #324E19",
"@  c #2B511F",
"#  c #36541B",
"$  c #3C5D1E",
"%  c #39571C",
"&  c #3D621F",
"*  c #164227",
"=  c #194627",
"-  c #13452E",
";  c #184528",
":  c #14492F",
">  c #1B4C2B",
",  c #1E512D",
"<  c #084D3C",
"1  c #144930",
"2  c #0E553F",
"3  c #264920",
"4  c #294C21",
"5  c #2E5321",
"6  c #21542D",
"7  c #305621",
"8  c #335C25",
"9  c #3B5D20",
"0  c #2A5031",
"q  c #366126",
"w  c #3B6423",
"e  c #3C6B2A",
"r  c #3A6726",
"t  c #3E722C",
"y  c #296030",
"u  c #2B6A36",
"i  c #396738",
"p  c #3E6C39",
"a  c #366136",
"s  c #416521",
"d  c #466D23",
"f  c #496F24",
"g  c #426E29",
"h  c #467125",
"j  c #4A7325",
"k  c #4D7A27",
"l  c #43742A",
"z  c #4B752A",
"x  c #4E7B2A",
"c  c #517E27",
"v  c #50772C",
"b  c #527D2B",
"n  c #417239",
"m  c #557F30",
"M  c #004C44",
"N  c #095A47",
"B  c #005349",
"V  c #005A4F",
"C  c #005D52",
"Z  c #0E644A",
"A  c #006256",
"S  c #006458",
"D  c #026F5E",
"F  c #05715F",
"G  c #3B6455",
"H  c #3F6956",
"J  c #007061",
"K  c #007C6B",
"L  c #406C57",
"P  c #406965",
"I  c #54822B",
"U  c #58842D",
"Y  c #56892C",
"T  c #588A2B",
"R  c #558230",
"E  c #5A8532",
"W  c #578831",
"Q  c #598A32",
"!  c #618A3A",
"~  c #00816F",
"^  c #008573",
"/  c #008C79",
"(  c #01937D",
")  c #05997F",
"_  c #3C887E",
"`  c #009681",
"'  c #009A84",
"]  c #308B80",
"[  c #00A38C",
"{  c #00A88F",
"}  c #00A790",
"|  c #00AC93",
" . c #00B197",
".. c #00B49B",
"X. c #00B89D",
"o. c #16B19C",
"O. c #00BDA2",
"+. c #12BAA3",
"@. c #698E8A",
"#. c #00C2A6",
"$. c #00CAAC",
"%. c #00C4AA",
"&. c #1EC0AA",
"*. c #02CDB2",
"=. c #10CEB5",
"-. c #00D1B2",
";. c #00DBBD",
":. c #25C1AB",
">. c #39C4B0",
",. c #35D2BD",
"<. c #53C3B3",
"1. c #00E1C1",
"2. c #08E7C9",
"3. c #0CF1D2",
"4. c #28E5CA",
"5. c #30E7CF",
"6. c #25EDD2",
"7. c #25F2D6",
"8. c #46DFCB",
"9. c #57E5D3",
"0. c #70E6D5",
"q. c #70F3DF",
"w. c #5EF7E3",
"e. c #64F6E2",
"r. c #6CF2E0",
"t. c #78F8E7",
"y. c #7CF8E8",
"u. c #70F6E3",
"i. c #94ABA5",
"p. c #8FD6CD",
"a. c #BFCDCC",
"s. c #BFCDCC",
"d. c #B9D8D4",
"f. c #B5D7D2",
"g. c #96E8DB",
"h. c #88E7D9",
"j. c #A0EADE",
"k. c #86F8E9",
"l. c #89F5E6",
"z. c #9CF9EC",
"x. c #97F3E6",
"c. c #ACEFE6",
"v. c #A5FAEE",
"b. c #A3FAEE",
"n. c #ACFAEE",
"m. c #B2FAEF",
"M. c #B2FBF1",
"N. c #BAFBF1",
"B. c #C5D9D6",
"V. c #D0F0EB",
"C. c #C3FBF2",
"Z. c #CBFCF5",
"A. c #D5FCF7",
"S. c #DBFDF8",
"D. c #E3FDF9",
"F. c #EDFEFB",
/* pixels */
"! E I I E E R b b b m R E R z z x R Q Q Q E I I R R v b E E I c ",
"E E I I U I b v v v b I R I k z x I W Q E R I I U I x x I U I c ",
"b b I I I I j f j k c I I c x k x I Y Y U I I I U I j j x c c x ",
"x x x I I I j d f j k z l e e e e e t l z x c I U I j j j j z z ",
"v x z z I I x j f d f r 6 : - - 1 1 1 > 5 w k I T Y I k j f h h ",
"b x z z x I I x f s q a G P P P P P P G 0 5 s x I Y I c j h h h ",
"R b z j k x I c k r 6 G i.a.a.a.a.a.a.i.G ; 7 s x I I I c c c c ",
"R b z j j k I x g i H @.d.D.D.D.D.D.F.f._ N , 5 d k c I I I I I ",
"v k j f j k I l 6 H i.d.c.v.v.v.v.M.Z.j.>.( N ; 5 & j c I U b v ",
"v k j f f d l n L @.B.A.b.k.k.l.z.b.z.q.4.X.A . o % f x I I v k ",
"I c j f d q 6 L i.B.V.C.z.k.k.z.Z.M.w.7.3.O.S . o % h x k k j f ",
"E I k j f 8 - P a.F.Z.m.n.b.z.n.S.C.e.7.3.*.^ N = O w h h j f f ",
"Q R x j j q - P a.D.M.n.Z.A.C.C.Z.C.v.u.7.1.#.( N * O % s f j k ",
"Q R x l e i H @.d.A.M.M.Z.Z.N.n.n.n.n.l.4.;.1.X.A . o + $ d j k ",
"I I x t 6 H i.d.c.M.A.Z.z.k.y.t.t.t.t.9.&.O.;.O.S . o % s f j j ",
"x x x e 1 P a.D.v.b.A.Z.k.w.w.w.w.w.w.8.o.| ;.*.^ N > 5 w d f j ",
"z z z e 1 P a.D.v.z.C.N.y.w.w.w.w.w.w.8.o.| ;.1.#.( N * 5 $ d j ",
"z k x e 1 P a.D.M.x.g.h.r.w.w.w.w.w.w.8.o.} %.-.$.[ V . o % d k ",
"v b c e : P a.F.Z.g.<.>.9.w.w.w.w.w.w.8.o.` ` ` ` K M . o # j c ",
"R I c e : P a.D.m.0.:.+.,.8.8.8.8.8.8.,.o.[ ` / ^ J M . o # j I ",
"E I c e : P a.Z.e.6.2.*.+.o.o.o.o.o.o.o.O.#.O. .' K M . o # z b ",
"R b x e 6 L i.p.5.2.;.$. .{ { { { { { | X.#.$.O.` D < * O $ z b ",
"z z h h l p L ] =.;.| [ X.#.#.#.#.#.#.X.' [ #. .J < = O & h v I ",
"z z h j k e : S O.-.` ( O.-.-.-.-.-.-.O.( /  .[ V . o # s k c U ",
"b x j j f q - A X.$.` ( O.-.-.-.-.-.-.O.( ^ ' / B . o + & j c I ",
"R b v j d q , Z ) { / ` O.-.-.-.-.-.-.O.` ^ ~ D < * O % s j k c ",
"E U I x d s e u Z D ^ [ #.-.-.-.-.-.-.#.[ ~ A < = 5 r h h j j k ",
"I I I c j f j e 6 2 F / [ | | | | | | [ / D < * @ & k I x j j f ",
"k v c c j d f d e y 2 B V C C C C C C V B < > @ w h x I I x j f ",
"j k c k h f j j j e > . . . . . . . . . . * O $ f k I I I I k j ",
"j k k j f f k x x h 8 3 o     o 3 4 4 3 o O 9 d h k c I I I x k ",
"k j j f d j x I I j $ + X X X X + # # + X + s j j k c I I I v x "
};
