/* XPM */
static char *af0db39f91b241d9bc4098d447c18584lRvWkTfGWEKrEI8J[] = {
/* columns rows colors chars-per-pixel */
"16 16 75 1 ",
"  c #003732",
". c #2A4115",
"X c #2B4517",
"o c #2C4716",
"O c #2E4917",
"+ c #2D4B18",
"@ c #2F4D19",
"# c #314D18",
"$ c #344F19",
"% c #33531A",
"& c #36531B",
"* c #436420",
"= c #436822",
"- c #466B22",
"; c #436C22",
": c #446C22",
"> c #436E24",
", c #4A6F24",
"< c #466D29",
"1 c #486C2A",
"2 c #457126",
"3 c #477724",
"4 c #497123",
"5 c #4D7523",
"6 c #4B7124",
"7 c #497626",
"8 c #4F7725",
"9 c #4D7926",
"0 c #4E7F26",
"q c #47722A",
"w c #4E722B",
"e c #4C7428",
"r c #497928",
"t c #4E782B",
"y c #4C7F29",
"u c #4E7B2C",
"i c #4F7C2F",
"p c #537F27",
"a c #507F29",
"s c #517A2D",
"d c #557A2E",
"f c #537D2C",
"g c #547C2F",
"h c #527C31",
"j c #577F30",
"k c #007C6A",
"l c #548027",
"z c #51812A",
"x c #55832A",
"c c #51862B",
"v c #548429",
"b c #51822C",
"n c #54822C",
"m c #57872C",
"M c #59832A",
"N c #58852E",
"B c #578928",
"V c #558A2D",
"C c #58892D",
"Z c #5B8F2C",
"A c #558131",
"S c #578532",
"D c #5A8732",
"F c #5F8A34",
"G c #5B8D34",
"H c #5B9035",
"J c #618A3A",
"K c #009883",
"L c #00D1B2",
"P c #00DEBC",
"I c #00F0D0",
"U c #5EF7E3",
"Y c #87F8E9",
"T c #C8FBF2",
"R c white",
/* pixels */
"JfDgdAD<iGDnStFp",
"uzB=6za8aVnam;9u",
"s2cz*:    @xZp;;",
"S77x8 RRRR %cxvx",
"w:,B RYYYTP #9Cs",
"N4= RTYYRII o07-",
"Hr7 RYRTTTIP X*t",
"uy RYRUUUUKI @66",
"1y RYTUUUUKIP $6",
"jl RTKUUUUKkk Xx",
"D9 RIIKKKKLLK Oh",
"q>v IkLLLLkL o5M",
"A6= PkLLLLkK .=x",
"Dx=y KLLLLK +c7,",
"6v:-7      #3vc,",
"e6-bz&..&&.,6xxt"
};
