/* XPM */
static char *result[] = {
/* columns rows colors chars-per-pixel */
"32 32 134 2 ",
"   c #060606",
".  c #0B0B0B",
"X  c #100F0F",
"o  c #0D0713",
"O  c #100A16",
"+  c #140C19",
"@  c #151313",
"#  c #181717",
"$  c #19131F",
"%  c #1C1B1B",
"&  c #0F0224",
"*  c #120226",
"=  c #15062B",
"-  c #1A0D2E",
";  c #1E1522",
":  c #170332",
">  c #1A0535",
",  c #1C0C33",
"<  c #1C0538",
"1  c #1E0D39",
"2  c #201724",
"3  c #201926",
"4  c #260E37",
"5  c #21063B",
"6  c #230A3D",
"7  c #231637",
"8  c #25103E",
"9  c #2C153B",
"0  c #27183D",
"q  c #2B1D3F",
"w  c #232222",
"e  c #26222D",
"r  c #270B40",
"t  c #2B0D43",
"y  c #271542",
"u  c #2B1344",
"i  c #2D1A40",
"p  c #2E1449",
"a  c #2F1949",
"s  c #321547",
"d  c #311A42",
"f  c #331549",
"g  c #34194C",
"h  c #381C4E",
"j  c #240056",
"k  c #2C0C5A",
"l  c #290468",
"z  c #33046F",
"x  c #351465",
"c  c #3E156B",
"v  c #340A73",
"b  c #381075",
"n  c #47146D",
"m  c #49156E",
"M  c #440F7F",
"N  c #4A1774",
"B  c #36038A",
"V  c #3A048D",
"C  c #3E0393",
"Z  c #4F0B86",
"A  c #551585",
"S  c #53128A",
"D  c #5B168B",
"F  c #410393",
"G  c #480495",
"H  c #460993",
"J  c #45049C",
"K  c #4B049C",
"L  c #4C0A9C",
"P  c #53059E",
"I  c #520A9F",
"U  c #4401A5",
"Y  c #4E05A1",
"T  c #4B09A0",
"R  c #4702AF",
"E  c #5505A3",
"W  c #5B06A4",
"Q  c #540AA7",
"!  c #5B0BA4",
"~  c #5307A8",
"^  c #5D06AD",
"/  c #5B09AB",
"(  c #5D10A3",
")  c #4500B4",
"_  c #4900B6",
"`  c #4700B8",
"'  c #4C00BA",
"]  c #5201BE",
"[  c #5B02BF",
"{  c #6106AD",
"}  c #630BAC",
"|  c #6814AB",
" . c #6E19AD",
".. c #721CAE",
"X. c #670AB6",
"o. c #690BB6",
"O. c #6E0FBB",
"+. c #6D13B4",
"@. c #7319B7",
"#. c #7413BC",
"$. c #4F00C1",
"%. c #5500C2",
"&. c #5B02C5",
"*. c #5500C9",
"=. c #5D00C9",
"-. c #6204C7",
";. c #6C0BC5",
":. c #6402CB",
">. c #6A03CE",
",. c #6608CA",
"<. c #6B0ACC",
"1. c #6400D2",
"2. c #6D03D2",
"3. c #6E0BD0",
"4. c #7404D4",
"5. c #7806D7",
"6. c #740AD3",
"7. c #7A0CD6",
"8. c #7604DA",
"9. c #7B06DA",
"0. c #7D0BD9",
"q. c #7210D1",
"w. c #7C13D6",
"e. c #7E11D8",
"r. c #800DDA",
"t. c #8313D4",
"y. c #8312DB",
"u. c #8916DE",
"i. c #8A19DE",
"p. c #8712E3",
"a. c #8F1BE0",
"s. c #911EE0",
"d. c #9421E2",
"f. c #9926E4",
/* pixels */
"            % w w % X         X % w w % . X % w % @ @ @ . X % w ",
"      .   . % e q y 1 : > < 5 6 s g g p 6 4 f i 3 # @ .   . % % ",
"  . . @ @ @ w q b V B B H K P E I E L T P P I M i % .     . . . ",
". @ @ 2 9 s a x F _ _ ] &.>.2.4.>.=.&.:.>.4.>./ c y > & o . . . ",
"% % # 9 A ( L L R ' &.>.4.4.8.4.>.:.=.:.6.0.7.;.~ H B l - X @ X ",
"% % # u I ,.%.' ] %.>.4.5.4.2.>.:.&.%.:.6.0.r.7.-.%._ B 1 @ @ @ ",
". . @ 0 H ] ' ] &.>.4.8.2.>.%.] ' ' ' ] &.>.4.5.2.:.] V : . @ @ ",
"  O , k C ) ' &.>.4.5.4.-.[ _ ) ` _ _ _ ] %.:.2.4.2.:.J j = $ % ",
"% 7 v C U _ &.>.4.5.6.:.] _ ) R ) ) ` ) ) _ %.=.>.4.>.[ U v y 3 ",
"% y C _ _ [ >.6.9.4.:.] ) ) ) ) _ ' ' ' ) ) _ %.:.2.4.4.:.L a % ",
". < H ] &.,.r.y.9.>.] ) ) ) ` ' %.%.=.&.%._ _ ' %.:.4.5.9.W 8 X ",
"  : F &.:.6.y.y.6.&._ ) ) ) $.%.&.:.:.>.:.&.' _ ' %.>.5.9.{ r   ",
"  : F *.:.>.6.3.-.] ) ) ) ` %.&.:.>.2.4.4.>.-.] _ _ [ >.8.{ t + ",
"  : F %.=.>.2.:.%.' ) ) ) ' %.-.2.4.0.9.r.5.>.%.) ) ' &.8.^ p # ",
"  : F *.=.=.:.=.$.' ` ) ` _ ' &.4.y.s.d.s.y.>.&._ ) ' =.2.{ t # ",
"  : C *.&.:.>.=.%.' ` ` ) _ ] &.6.y.d.f.s.y.6.&.' ) $.*.2.^ s # ",
"  > C ] =.2.7.6.,.%.) R _ _ ] &.4.7.i.s.i.y.5.>.%.] %.=.2./ g ; ",
". > V ] &.>.e.y.6.-.' ) ) _ ' %.:.6.r.u.u.y.9.4.&.] ] &.1.~ a % ",
"X 1 B _ ] ,.w.y.r.6.&.] _ _ ] %.&.:.4.7.u.p.e.<.%.' ' ] *.U r . ",
"@ 8 B _ _ [ q.w.y.e.<.-.] ] %.*.&.:.6.r.i.i.6.,.] _ ' ] *.J <   ",
"# 8 H ' R ' %.,.6.y.y.w.>.-.&.&.:.2.e.u.i.e.,.%._ ) ] &.2.Q 5   ",
"% u I &.' R ' &.<.e.i.i.7.4.:.>.6.5.u.i.y.<.&.' ) ' -.<.7./ r . ",
"w h | 7.&.' ` ' &.q.y.i.u.r.8.6.0.y.i.t.<.&.' ' ] &.7.y.p.+.s @ ",
"% 9 D +.;.,.' ' ] &.q.w.u.y.5.5.9.y.y.q.&.' ' ' &.2.t.t.;.D 9 @ ",
"  + 9 m  .7.,.] ' ' &.<.q.0.5.8.4.6.<.&.' _ ] =.2.0.y.+.N 9 2 @ ",
"  . @ f  .u.7.,.] _ ' %.,.2.2.2.>.-.%.] _ ] &.>.4.5.5.W r @ # % ",
"X @ @ s  .i.i.w.,.] ) _ %.&.=.=.%.' ` ) %.&.3.5.9.4.-.G < . % w ",
"@ @ @ 9 A ....@.;.:.' ` $.*.=.=.%.' ` ' &.2.0.7.o.! G z *   @ % ",
". . @ ; 9 d g m X.2.*.*.*.1.2.1.=.*.%.&.4.9.0.O.N f y , o . . . ",
"    X @ # # @ 4 Z / Y J K E E E Y J K K { } } S d w % @ .   . X ",
"    . X % % . O 4 t < < < 5 t p t 6 < < 4 r t 9 2 % w % X . # % ",
"      X % %     X @ .     . @ @ # @ .       + # @ % w % . . w w "
};
