/* XPM */
static char *b88ba4b4d0ef428bfa2d807f37fbc8bb9zfQf19k3xnKuvRO[] = {
/* columns rows colors chars-per-pixel */
"16 16 69 1 ",
"  c #436420",
". c #436822",
"X c #466B22",
"o c #436E23",
"O c #466D23",
"+ c #436E24",
"@ c #456E25",
"# c #4A6F24",
"$ c #466D29",
"% c #486C2A",
"& c #447221",
"* c #477421",
"= c #457126",
"- c #467525",
"; c #497123",
": c #4D7523",
"> c #4B7124",
", c #497626",
"< c #4F7725",
"1 c #4B7824",
"2 c #4C7824",
"3 c #4B7F26",
"4 c #4D7C27",
"5 c #47722A",
"6 c #4E722B",
"7 c #4E7629",
"8 c #497928",
"9 c #4D7A2A",
"0 c #4C7F29",
"q c #4E782C",
"w c #4F7C2F",
"e c #517B27",
"r c #507D25",
"t c #527B29",
"y c #507F29",
"u c #547E29",
"i c #517A2D",
"p c #54792D",
"a c #527C31",
"s c #577F30",
"d c #4F8027",
"f c #4F832B",
"g c #4E842A",
"h c #508027",
"j c #548027",
"k c #51812A",
"l c #54802A",
"z c #51862B",
"x c #568628",
"c c #51822C",
"v c #54822C",
"b c #56842C",
"n c #59832A",
"m c #58852E",
"M c #53882A",
"N c #578928",
"B c #578C2B",
"V c #568B2E",
"C c #59892A",
"Z c #5C8E2B",
"A c #598A2D",
"S c #5B8F2C",
"D c #558131",
"F c #578532",
"G c #598730",
"H c #5F8A34",
"J c #5B8D34",
"K c #5B9035",
"L c #60912F",
/* pixels */
"l2k7pDG$wJGvF9Hr",
"9kN.>ky<yVvybo2q",
"i=zk Oy<ly0lSroo",
"F,,l<>O4OXeMzlxl",
"6O#NCz34AlA0k2Ai",
"m;.*z,OzyOMd,4,X",
"K8,O<xZk@=4O=, 9",
"q029;ZLu=4,x00>>",
"%0zNBCA9-==V1;l>",
"sjONfCzV2,8X&4>l",
"G2kk.ulAx2,l0O2a",
"5+x4X<b==.=,k,:n",
"D>.gkx7o&O,z2..l",
"Gl.0rf9N2;t13z,#",
">xOX,kVCk.#h-xz#",
"7>XckAX#CAX#>ll9"
};
