/* XPM */
static char *result[] = {
/* columns rows colors chars-per-pixel */
"32 32 22 1 ",
"  c #466D23",
". c #496E24",
"X c #496F2A",
"o c #467225",
"O c #4A7425",
"+ c #4C7A26",
"@ c #4C7529",
"# c #4E7C29",
"$ c #507C27",
"% c #50772B",
"& c #517D2A",
"* c #557F30",
"= c #4E8129",
"- c #528127",
"; c #53832A",
": c #58842D",
"> c #56892B",
", c #5A8B2C",
"< c #558331",
"1 c #598530",
"2 c #578931",
"3 c #598A32",
/* pixels */
";$++$&#%%**:1*@X@*2311;<<<#*11;$",
"&$##-$@@%$*&:&@X&*222<;<<;##<:$$",
"&&&;;$O..%&&;&%+#;222;;&;&@O#$%#",
"####;-O..O%$&$$$#-<>;;&;:;@oOO@@",
"*#oo;==+  .O+$++&;$;=#;;,;$Oooo ",
"*#@+=--#.  .++++$%++#;=>>,-$OOoo",
"<*@+@#$&OOO..O++OO.O#$>>>;;&--#$",
"*#@oO#$;$++OOO++@OOO$$-=;--;;:;$",
"%@@ .O->----++==;-$$;>====+=;:;&",
"%@X  O-->>--+++=::&-;>====++;-&@",
";&O   o=-;=OOO=-;#+O;>-=++++#@@.",
"1;@O  oO==++O#-$=@oo=-+++o++O...",
"33#oooooO=--,-;$Oooo+++oooOO. .@",
"32=+#oo@++-,,,:$oooo+oOoo@oO  @O",
"**##+oooO$-,,,,$#o#@++===##+O.OO",
"@@####==+$,,,,,$ooo@++-==#+$OO.O",
" @#==-->->>,,>&#oo#oo==>=@+O+$O.",
"X@#==->>>,>,><;##ooooo==++Oo$$$O",
"**-+O+->>>>>>>>==oooo@oooo++%O$$",
"**-+O+-;+=;>=<2>=+##+oOoooo+O+&&",
"1;$#+=-#oo+;&:,:;=+OO+##++O.OO$*",
"<&@+---#o.$&;;;;-+OoOO+=$$OOO$&*",
"@@OO--$+..O$;&#o+oo oo+#-+OO.$*&",
"@@oo+$$$O.%$-#ooo   oo++-+OO.$$*",
"*%O.OO+##---&@ooo ..OO+=+O   o+-",
"<<%O  +=--;-$@OOo ..O+=-=Oo   +$",
"<<$#  +==+;=##$=+oO.++++++==OOOO",
"<;;%o ++##===;:;-+O.+$++===-+OO.",
"%$&$o  oO+=;;;,,-Oo .O$$O+-;-+OO",
"OO&$o.oo@#=;;-&--=O..OO$O+-->=+O",
"O%+O. O#$-:;++O$;;--..OOOO&:;$@@",
"%OO. O#;-;>;...$;,,-....O+&;&;%#"
};
