/* XPM */
static char *_0d3ee3b98dd4ef6ea488375177823c1OZijkNGTYnxqmGsx[] = {
/* columns rows colors chars-per-pixel */
"32 32 117 2 ",
"   c #171727",
".  c #181827",
"X  c #1B1B2D",
"o  c #1E1E33",
"O  c #212136",
"+  c #24243A",
"@  c #27283F",
"#  c #29293D",
"$  c #272840",
"%  c #2A2A43",
"&  c #2A2B4E",
"*  c #323349",
"=  c #2D2E55",
"-  c #2E2F58",
";  c #2F305A",
":  c #31325C",
">  c #353661",
",  c #373864",
"<  c #393A66",
"1  c #3B3C69",
"2  c #474771",
"3  c #474873",
"4  c #494975",
"5  c #4C4D7E",
"6  c #4F507E",
"7  c #4E4F80",
"8  c #4F5081",
"9  c #525384",
"0  c #55568A",
"q  c #57588B",
"w  c #595A8E",
"e  c #5C5D92",
"r  c #5F6196",
"t  c #616296",
"y  c #63649C",
"u  c #67699E",
"i  c #787A9F",
"p  c #6567A1",
"a  c #6769A3",
"s  c #696BA5",
"d  c #6B6DA8",
"f  c #6F71A7",
"g  c #6F71AA",
"h  c #7779A0",
"j  c #7B7DA4",
"k  c #7275AD",
"l  c #7C7EA8",
"z  c #7577B0",
"x  c #787AB3",
"c  c #7A7CB4",
"v  c #7B7DB5",
"b  c #7D7FB6",
"n  c #7F81A9",
"m  c #7F81AB",
"M  c #7E80B8",
"N  c #7F81B8",
"B  c #8082AA",
"V  c #8184AB",
"C  c #8083AE",
"Z  c #8587AF",
"A  c #8284AE",
"S  c #8082B0",
"D  c #8184B0",
"F  c #8284B1",
"G  c #8285B1",
"H  c #8587B1",
"J  c #8486B2",
"K  c #8587B3",
"L  c #8487B5",
"P  c #8385B1",
"I  c #8588B5",
"U  c #8789B4",
"Y  c #878AB4",
"T  c #8689B6",
"R  c #8688B7",
"E  c #8689B7",
"W  c #8688B3",
"Q  c #8A8DB6",
"!  c #888AB7",
"~  c #8082B9",
"^  c #888BB8",
"/  c #888ABB",
"(  c #898BBB",
")  c #8A8DB8",
"_  c #898CBB",
"`  c #8A8CBA",
"'  c #8B8DBA",
"]  c #8B8EBA",
"[  c #8A8DBC",
"{  c #8C8FBD",
"}  c #8D90BE",
"|  c #8F92BF",
" . c #8F92BF",
".. c #A0A2CC",
"X. c #A3A5D4",
"o. c #A8AAD8",
"O. c #AAACD9",
"+. c #ABADDA",
"@. c #ACAEDA",
"#. c #ACAEDB",
"$. c #ADAFDB",
"%. c #AEB0DB",
"&. c #AEB0DC",
"*. c #AFB1DC",
"=. c #B2B4DF",
"-. c #B2B4E0",
";. c #B3B5E0",
":. c #B4B6E0",
">. c #B4B6E1",
",. c #B5B7E1",
"<. c #B6B8E1",
"1. c #C2C3E6",
"2. c #C2C4E6",
"3. c #C3C4E6",
"4. c #C3C5E6",
"5. c #C4C5E7",
"6. c #C5C6E7",
/* pixels */
";.,.1.6.6.;.;.;.;.;.;.,.3.6.3.,.# ..=.,.3.6.3.,.3.,.;.1.<.6.6.6.",
"@.@.;.%.@.@.@.@.@.@.=.;.&.,.&.=.O f X.=.&.,.&.=.,.@.@.@.@.&.;.&.",
"z v O.x z z z z z v O.@.N O.~ O.O y k O.N O.~ O.O.v z z z N o.b ",
"q t w 0 0 y t q 0 0 q q 0 q 0 q @ 9 0 w t w t w q 0 0 t q q y y ",
"O + + O O + + O O + + O + o O + w % + O + + + O O O o + + + + + ",
"d d R s d g / g t ] ] e h O y R d / ] s y S y y y e O s [ / k ] ",
"s a e e a s d d a a e 5 # O 5 0 0 0 w 9 , , > > > : X p d d d s ",
"w w 0 0 w e s d 0 1 > O . . o o o o o o X X X X X X   0 w e p 1 ",
": > 5 > 7 9 9 9 = O + + + # C g [ d d | | | { d [ y + + = - - - ",
": - : - : : : : % y F R Z + y s d s s d d d s e s y + h % + + O ",
"- o X X X X X X r s g k ] + t e s e w s e a e p e t + s t V n t ",
"% t a s R L d R d d d g R O r w w a a w q p w 0 0 9 O 0 a e s s ",
"y s d d d g s g s s d d s O 9 0 0 0 w 0 0 0 0 0 0 9 O 9 w p w w ",
"0 w p p w p w p 0 w p s y X - : 5 1 5 1 5 1 5 < 9 5 O 5 0 9 0 9 ",
"0 0 w w 0 w 0 w w y e a 0 X - : , 5 < 5 < 5 < 5 > : X > 8 < 7 < ",
"0 0 0 0 0 0 0 0 0 w 0 0 ,   o - : > : > : > : > : - X ; > : > : ",
": 8 0 9 0 9 9 > 5 : - = O + + O + O O + + . + O + + + O O + O O ",
"o > 7 1 7 1 5 > : - + O e H H a F y y H B # l a R R Q a a F u y ",
"X ; > 5 1 5 < : X O 0 O 9 t g d g e a g e # H g k k | d d g e w ",
"X : 5 1 5 > - O y y e O 9 w a s s a s w 9 + y d s s s s w w 0 0 ",
"X ; > 5 1 4 @ 5 w e a O 5 0 0 0 0 0 0 9 9 + 9 a w w w a w p w 0 ",
"O = ; > 5 O 4 y w a s X # + + # # # + # @ e 0 9 w y w p w w 0 9 ",
"3 @ = ; : = + 9 0 w a + j y y C H A u m y $ 5 < 9 0 0 q 0 y 9 1 ",
"< 3 O o - - o 5 < 0 a # H d d g g g d g a X : : > > > 9 1 9 1 7 ",
"> 9 0 y % O O = 5 > 5 O 9 s s s s s s s y . + = - - - - - - - - ",
"> 9 0 s y y r % : - : o 9 0 q 0 q 0 0 0 9 # i * O O O + O O O O ",
"> 9 0 s e d d n X o - o 5 1 9 1 9 < > > > # H Z e 9 e l t e e 6 ",
": 5 1 9 0 q a d R y % 2 % - : : : : : = O 0 w w 9 9 9 9 9 9 9 9 ",
"o : 5 < 9 1 0 s d s y % 0 O - ; ; ; ; O 4 9 9 9 + O O + + O O + ",
"- o & : 1 5 1 y 0 w a % 4 2 @ O # + O + + # + O R a w ! H S a S ",
": = o > e < 5 0 0 w a e % % 4 e l r 9 t t n y 9 w 0 0 0 1 < , < ",
": - X : , : > > < 0 w w r 0 % 9 1 1 9 0 1 e 0 < > > > > : : : : "
};
