/* XPM */
static char *c36819279d944719ce708fc77111e235dQXP28CWoeoYAGmP[] = {
/* columns rows colors chars-per-pixel */
"64 64 2 1 ",
"  c None",
". c #FFF200",
/* pixels */
"                          ...........                           ",
"                      ...................                       ",
"                   .........................                    ",
"                 .............................                  ",
"               ..............................                   ",
"              ...............................                   ",
"             ...............................                    ",
"           .................................                    ",
"          .................................                     ",
"         ..................................                     ",
"        ..................................                      ",
"       ...................................                      ",
"       ..................................                       ",
"      ..................................                        ",
"     ...................................                        ",
"    ....................................                        ",
"    ...................................                         ",
"   ....................................                         ",
"   ...................................                          ",
"  ....................................                          ",
"  ...................................                           ",
"  ...................................                           ",
" ...................................                            ",
" ...................................                            ",
" ..................................                             ",
" ..................................                             ",
"..................................                              ",
"..................................                              ",
".................................                               ",
".................................                               ",
"...............................                                 ",
"...............................                                 ",
"...............................                                 ",
".................................                               ",
".................................                               ",
"..................................                              ",
"..................................                              ",
" ..................................                             ",
" ..................................                             ",
" ...................................                            ",
" ...................................                            ",
"  ...................................                           ",
"  ...................................                           ",
"  ....................................                          ",
"   ...................................                          ",
"   ....................................                         ",
"    ...................................                         ",
"    ....................................                        ",
"     ...................................                        ",
"      ...................................                       ",
"       ..................................                       ",
"       ...................................                      ",
"        ..................................                      ",
"         ..................................                     ",
"          .................................                     ",
"           .................................                    ",
"             ...............................                    ",
"              ...............................                   ",
"               ..............................                   ",
"                 .............................                  ",
"                   .........................                    ",
"                      ...................                       ",
"                          ...........                           ",
"                                                                "
};
