/* XPM */
static char *c62ac3582bc643e8c9c489372e4cd857qJIaK342nkrxDnya[] = {
/* columns rows colors chars-per-pixel */
"64 64 2 1 ",
"  c None",
". c #FFF200",
/* pixels */
"                          ...........                           ",
"                      ...................                       ",
"                   .........................                    ",
"                 .............................                  ",
"               .................................                ",
"              ...................................               ",
"             .....................................              ",
"           .........................................            ",
"          ...........................................           ",
"         .............................................          ",
"        ...............................................         ",
"       .................................................        ",
"       .................................................        ",
"      ...................................................       ",
"     .....................................................      ",
"    .....................................................       ",
"    ...................................................         ",
"   ...................................................          ",
"   ..................................................           ",
"  .................................................             ",
"  ................................................              ",
"  ..............................................                ",
" ..............................................                 ",
" .............................................                  ",
" ...........................................                    ",
" ..........................................                     ",
".........................................                       ",
"........................................                        ",
".......................................                         ",
".....................................                           ",
"...................................                             ",
"..................................                              ",
"...................................                             ",
".....................................                           ",
".......................................                         ",
"........................................                        ",
".........................................                       ",
" ..........................................                     ",
" ...........................................                    ",
" .............................................                  ",
" ..............................................                 ",
"  ..............................................                ",
"  ................................................              ",
"  .................................................             ",
"   ..................................................           ",
"   ....................................................         ",
"    ....................................................        ",
"    .....................................................       ",
"     .....................................................      ",
"      ...................................................       ",
"       .................................................        ",
"       .................................................        ",
"        ...............................................         ",
"         .............................................          ",
"          ...........................................           ",
"           .........................................            ",
"             .....................................              ",
"              ...................................               ",
"               .................................                ",
"                 .............................                  ",
"                   .........................                    ",
"                      ...................                       ",
"                          ...........                           ",
"                                                                "
};
