/* XPM */
static char *c19cfd1bcad24201b28048058fa20676EIgSdASNoepJt281[] = {
/* columns rows colors chars-per-pixel */
"16 16 82 1 ",
"  c black",
". c #060606",
"X c #171515",
"o c gray14",
"O c #3D00AE",
"+ c #3F00B3",
"@ c #4100AF",
"# c #4000B1",
"$ c #4400B2",
"% c #4100B4",
"& c #4700B4",
"* c #4A00B6",
"= c #4800B8",
"- c #4900BC",
"; c #4E00BE",
": c #5100BA",
"> c #5400BA",
", c #5200BE",
"< c #5400BF",
"1 c #5800BB",
"2 c #4E00C0",
"3 c #4E00C4",
"4 c #5200C3",
"5 c #5500C1",
"6 c #5700C4",
"7 c #5A00C3",
"8 c #5B00C7",
"9 c #5F00C7",
"0 c #5100C9",
"q c #5700CB",
"w c #5B00C9",
"e c #5C00C8",
"r c #5A00CC",
"t c #6102C6",
"y c #6200C9",
"u c #6600CB",
"i c #6700CE",
"p c #6A00CF",
"a c #6E02CE",
"s c #6A04CC",
"d c #6300D1",
"f c #6B00D0",
"g c #6F01D1",
"h c #6C00DB",
"j c #7303D3",
"k c #7104D2",
"l c #7303D4",
"z c #7502D5",
"x c #7708D6",
"c c #7808D5",
"v c #7200DA",
"b c #7600D8",
"n c #7400DF",
"m c #7D06DA",
"M c #7907DE",
"N c #7E0ADA",
"B c #7900E1",
"V c #7E06E1",
"C c #7E0AE0",
"Z c #8005DD",
"A c #810CDB",
"S c #820ADC",
"D c #830DDC",
"F c #840FDD",
"G c #8012D8",
"H c #8412DB",
"J c #8713DE",
"K c #8813DF",
"L c #8B14DF",
"P c #8819DE",
"I c #8E1BDF",
"U c #8A1DDE",
"Y c #8108E2",
"T c #8409E4",
"R c #8C15E0",
"E c #901AE1",
"W c #921EE1",
"Q c #941CE3",
"! c #951DE4",
"~ c #9017EA",
"^ c #9724E4",
"/ c #A12EE7",
/* pixels */
".. oo...oo.oXX.o",
".XXo&#ezy6g9o ..",
"oXG;=aNbi8FH,#XX",
" X&=fZu*=&7zz; X",
"o&@pSy$O&=O;lj3o",
" 6s!j#$26i5%5mY.",
".4ik;#=8glm9O1BX",
".4ee-=&:D/Wy#;nX",
".;iLy#&,kIJz66ho",
"XO>JJ5&46lQc**0.",
"X7O,GWp8fIP,O7M.",
"oR7#8UQzKI5%8L~X",
" XEy+<xzg7+8mAXX",
"XXP^tO2w=O7Fz, o",
".XXXVqdvrwTCoX..",
"..o X..XX..XXo.o"
};
