/* XPM */
static char *_ff20cace30145b7a7070e114e0fbc7bgq1bJwRucPt4FQWQ[] = {
/* columns rows colors chars-per-pixel */
"16 16 39 1 ",
"  c #261705",
". c #281907",
"X c #2A1B08",
"o c #2D1D0A",
"O c #321F09",
"+ c #321E0C",
"@ c #36230D",
"# c #37240E",
"$ c #461F06",
"% c #432911",
"& c #713D2C",
"* c #744024",
"= c #814B2D",
"- c #88502D",
"; c #944839",
": c #895034",
"> c #975B37",
", c #9F5C39",
"< c #995B3D",
"1 c #A66040",
"2 c #A56646",
"3 c #AC6740",
"4 c #A47058",
"5 c #B57355",
"6 c #BD785D",
"7 c #B27B62",
"8 c #BF7863",
"9 c #B57E6A",
"0 c #C07F6F",
"q c #BE8767",
"w c #BD8169",
"e c #C88567",
"r c #C4866E",
"t c #C6886E",
"y c #C68C6D",
"u c #C68C70",
"i c #CF947C",
"p c #2621B2",
"a c white",
/* pixels */
"==::$$$$$$$$****",
"==::$$$$$$$$****",
"::>>$$;;;;$$,,<<",
"::>>$$;;;;$$,,<<",
"--33ee&&&&006611",
"--33ee&&&&006611",
"77aapprr88ppaaww",
"77aapprr88ppaaww",
"2222rr449977ww77",
"2222rr449977ww77",
"##55uuttiiyyqqoo",
"##55uuttiiyyqqoo",
"XXoo%%%%@@oooooo",
"XXoo%%%%@@oooooo",
"oooo..  XX++ooOO",
"oooo..  XX++ooOO"
};
