/* XPM */
static char *_e49c6a3ba2a4f078b013394439abee6QuSNCAnuJamvZbyL[] = {
/* columns rows colors chars-per-pixel */
"32 32 150 2 ",
"   c #261705",
".  c #271806",
"X  c #281907",
"o  c #2D1D0A",
"O  c #311E0A",
"+  c #35220D",
"@  c #3B250E",
"#  c #362410",
"$  c #461F06",
"%  c #4B2209",
"&  c #53290E",
"*  c #432911",
"=  c #472D18",
"-  c #552710",
";  c #572C12",
":  c #5A2B13",
">  c #4C321C",
",  c #53351C",
"<  c #66381E",
"1  c #6A3A1F",
"2  c #4E3520",
"3  c #543620",
"4  c #533822",
"5  c #5D3E27",
"6  c #5C3F29",
"7  c #643720",
"8  c #6E3B26",
"9  c #723623",
"0  c #713E23",
"q  c #713D2C",
"w  c #5E4029",
"e  c #644128",
"r  c #6A4329",
"t  c #764327",
"y  c #7A422D",
"u  c #7F492C",
"i  c #754229",
"p  c #6A4932",
"a  c #7B4F35",
"s  c #7F593E",
"d  c #803E2C",
"f  c #824B2D",
"g  c #894D2C",
"h  c #88502E",
"j  c #824230",
"k  c #8B4536",
"l  c #864D34",
"z  c #854D3B",
"x  c #944839",
"c  c #8B5235",
"v  c #8A5638",
"b  c #925635",
"n  c #965A37",
"m  c #935A3A",
"M  c #9C5C3B",
"N  c #A35F3F",
"B  c #A5633D",
"V  c #8B554C",
"C  c #945F43",
"Z  c #985D4B",
"A  c #9B6146",
"S  c #91644C",
"D  c #9B6548",
"F  c #9B6D51",
"G  c #A56444",
"H  c #AC6742",
"J  c #A76B4D",
"K  c #AA694B",
"L  c #B26D4C",
"P  c #A16755",
"I  c #A46C54",
"U  c #AC6C53",
"Y  c #AC6E5E",
"T  c #B06E54",
"R  c #A47056",
"E  c #A57259",
"W  c #AC755D",
"Q  c #AD7457",
"!  c #B47254",
"~  c #B47459",
"^  c #B7795F",
"/  c #BC785D",
"(  c #945D68",
")  c #96636E",
"_  c #99656A",
"`  c #8F6476",
"'  c #996277",
"]  c #9C6D7F",
"[  c #996A73",
"{  c #9F737C",
"}  c #AC7563",
"|  c #A97860",
" . c #AD766C",
".. c #B37C63",
"X. c #BD7B64",
"o. c #B57E69",
"O. c #BC7D69",
"+. c #A06D76",
"@. c #A06C7A",
"#. c #A87477",
"$. c #A4757C",
"%. c #C17D5D",
"&. c #C07C66",
"*. c #C07F6F",
"=. c #B58062",
"-. c #BB8267",
";. c #B7846A",
":. c #BD826A",
">. c #B88572",
",. c #BB8B74",
"<. c #BD8E78",
"1. c #B48477",
"2. c #C88567",
"3. c #C3866C",
"4. c #C4896D",
"5. c #C58C71",
"6. c #C88D73",
"7. c #CE937A",
"8. c #C5927D",
"9. c #2621B2",
"0. c #4B379E",
"q. c #4F3A9F",
"w. c #4D3AA1",
"e. c #67488F",
"r. c #64458E",
"t. c #664890",
"y. c #694C93",
"u. c #7462AD",
"i. c #5C59C5",
"p. c #9A6880",
"a. c #A77481",
"s. c #BE9288",
"d. c #C08D84",
"f. c #C79884",
"g. c #CD9A85",
"h. c #C59C89",
"j. c #CEA18F",
"k. c #DABFB1",
"l. c #DAC0B3",
"z. c #E1C8BD",
"x. c #E1C4B9",
"c. c #C3B1C4",
"v. c #C6B5CA",
"b. c #EAD9CF",
"n. c #ECDBD4",
"m. c #ECDED8",
"M. c #EFE0DA",
"N. c #C9C7EC",
"B. c #C9C8EC",
"V. c white",
/* pixels */
"O O O O o o o o O O O O o X X X .     . X X X X o o o o o o o o ",
"O O O O o o o o O O O O o X X X .     . X X X X o o o o o o o o ",
"O O O O o o o o O O O O o X X X .     . X X X X o o o o o o o o ",
"O O O O o o o o O O O O o o o o o o o o o o o o o o o o o o o o ",
"o o o o o o o o o o o o + + + + @ @ @ @ @ @ @ + O o o o o X X X ",
"o o o o o o o o o o o o + + + @ * * * * * * * @ + o o o X X X X ",
"o o o o o o o o o o o o + + + @ * * * * * * * @ + o o o X X X X ",
"o o o # > 4 4 4 4 4 4 4 5 6 6 w e e e e e e e 5 3 > > = + o o o ",
"o o o > s F F F F R R R W | | W E R R R E E E I D C C a > + + + ",
"o o o 4 F -.-.3.4.4.4.6.7.7.7.7.5.4.4.4.5.5.5.3./ ! ! C 3 + + + ",
"o o o 4 F -.-.3.4.4.4.6.7.7.7.7.5.4.4.4.5.5.5.3./ ! ! C 3 + + + ",
"2 2 > p R -.:.:.3.3.3.4.6.6.6.5.3.:.:.:.4.4.4.3.~ ! ! A r , , , ",
"S S S F ..:.:.:.-.o.o.-.;.;.;.;...W W ..:.3.4.-.! K K G m v v v ",
"......o.-.:.:.O.o.......o.o.o...W E E W :.3.3.X.U G G G G G G G ",
"......o.-.:.:.O.o.......o.o.o...W E E W :.3.3.X.U G G G G G G G ",
"o.o.o.;.f.j.j.s.{ ` ` [  .O.O.o.} W W } +.] ] $.1.,.,.;.Q J J J ",
"-.-.-.f.z.M.M.v.u.0.0.t.+.X.X.X.O.:.:.+.y.w.w.u.c.n.n.l.<.W W W ",
":.:.:.j.M.V.V.N.i.9.9.0.' X.X.&.3.3.3.] w.9.9.i.B.V.V.m.h.......",
":.:.:.j.M.V.V.N.i.9.9.0.' X.X.&.3.3.3.] w.9.9.i.B.V.V.m.h.......",
"^ ^ ^ 8.x.m.m.v.u.w.w.r.( U U U W W W ) e.q.q.u.c.b.b.k.,.R R R ",
"K K K ~ 6.g.g.d.a.p.p.) V z z z z z z V _ @.@.#.>.4.5.=.D m m m ",
"G G G H ! / / X.O.*.*.Y z q q q q q q z ~ 2.2.%.L H H B b h h h ",
"G G G H ! / / X.O.*.*.Y z q q q q q q z ~ 2.2.%.L H H B b h h h ",
"N N N G L ! ! T I P P Z z y y y y y y l A J J K G B B M b h h h ",
"M M M M G G G n t 7 7 8 j k k k k k k j 0 < < t c M M n c c c c ",
"M M M M M M M g : $ $ : d x x x x x x d : $ $ : f n n n c c c c ",
"M M M M M M M g : $ $ : d x x x x x x d : $ $ : f n n n c c c c ",
"b b b b b b b f : $ $ - 9 d d d d d d 9 - $ $ : f n n b c c c c ",
"u u u u f f f 0 & $ $ % - : : : : : : - % $ $ : u c c c l f f f ",
"t t t t t t t 1 & $ $ $ $ $ $ $ $ $ $ $ $ $ $ ; y c c c f f f f ",
"t t t t t t t 1 & $ $ $ $ $ $ $ $ $ $ $ $ $ $ ; y c c c f f f f ",
"t t t t t t t 1 & $ $ $ $ $ $ $ $ $ $ $ $ $ $ ; y c c c f f f f "
};
