/* XPM */
static char *_2b3e2ab3afe4f47a4e47cae16898d7ccYKRsoJOD8jChnEI[] = {
/* columns rows colors chars-per-pixel */
"16 16 39 1 ",
"  c #261705",
". c #281907",
"X c #2A1B08",
"o c #2D1D0A",
"O c #321F09",
"+ c #321E0C",
"@ c #36230D",
"# c #37240E",
"$ c #461F06",
"% c #432911",
"& c #713D2C",
"* c #764327",
"= c #814B2D",
"- c #88502D",
"; c #944839",
": c #8B5236",
"> c #975B37",
", c #9F5C39",
"< c #995B3D",
"1 c #A66040",
"2 c #A56646",
"3 c #AC6740",
"4 c #A47058",
"5 c #B57355",
"6 c #BD785D",
"7 c #B27B62",
"8 c #BF7863",
"9 c #B57E6A",
"0 c #C07F6F",
"q c #BE8767",
"w c #BD8169",
"e c #C88567",
"r c #C4866E",
"t c #C6886E",
"y c #C68C6D",
"u c #C68C70",
"i c #CF947C",
"p c #2621B2",
"a c white",
/* pixels */
"OOoo++XX  ..oooo",
"OOoo++XX  ..oooo",
"oooooo@@%%%%ooXX",
"oooooo@@%%%%ooXX",
"ooqqyyiittuu55##",
"ooqqyyiittuu55##",
"77ww779944rr2222",
"77ww779944rr2222",
"wwaapp88rrppaa77",
"wwaapp88rrppaa77",
"116600&&&&ee33--",
"116600&&&&ee33--",
"<<,,$$;;;;$$>>::",
"<<,,$$;;;;$$>>::",
"****$$$$$$$$::==",
"****$$$$$$$$::=="
};
